<svg xmlns="http://www.w3.org/2000/svg" xmlns:xlink="http://www.w3.org/1999/xlink" width="1080" zoomAndPan="magnify" viewBox="0 0 810 1012.49997" height="1350" preserveAspectRatio="xMidYMid meet" version="1.0"><defs><g/><clipPath id="5b69e18694"><path d="M 0.199219 0 L 809.800781 0 L 809.800781 1012 L 0.199219 1012 Z M 0.199219 0 " clip-rule="nonzero"/></clipPath><clipPath id="561e7f4961"><path d="M 0.199219 398 L 809.800781 398 L 809.800781 1002 L 0.199219 1002 Z M 0.199219 398 " clip-rule="nonzero"/></clipPath></defs><g clip-path="url(#5b69e18694)"><path stroke-linecap="butt" transform="matrix(4.692092, -0.401483, 0.401483, 4.692092, -82.666444, 254.205542)" fill="none" stroke-linejoin="miter" d="M 111.080096 6.119137 C 111.079762 6.580324 110.72171 7.009237 110.005798 7.407529 C 109.289647 7.78915 108.311576 8.147528 107.070902 8.480938 C 105.575123 9.849817 103.960237 11.997732 102.226243 14.924682 C 100.508022 17.852149 98.685691 21.256898 96.760903 25.139071 C 94.836115 29.021244 92.831446 33.078071 90.746896 37.309551 C 88.663102 41.541929 86.530887 45.678587 84.351077 49.719595 C 82.171268 53.760603 79.920234 57.427544 77.597904 60.721244 C 75.290593 64.014564 72.943724 66.631825 70.557298 68.573026 C 68.187026 70.529763 65.792264 71.507861 63.374596 71.508288 C 61.035252 71.507924 59.078322 70.87177 57.503877 69.598999 C 55.944759 68.341693 54.774629 66.838777 53.995283 65.088741 C 53.215627 63.32286 52.826112 61.7552 52.825769 60.387344 C 52.82568 59.464074 53.001014 58.708998 53.351085 58.120391 C 53.717 57.531475 54.225889 57.237017 54.878577 57.237086 C 55.403069 57.237009 55.776955 57.372233 56.000232 57.642758 C 56.222374 57.897368 56.508768 58.159974 56.859414 58.430575 C 57.224769 58.684952 57.80581 58.812093 58.600885 58.811858 C 60.41491 58.812228 62.443794 57.72207 64.68657 55.542964 C 66.946088 53.362793 69.308484 50.515421 71.774726 46.999265 C 74.256503 43.466955 76.786 39.600727 79.363217 35.400579 C 81.94126 31.200502 84.51076 27.032162 87.071717 22.895559 C 89.649345 18.758718 92.115371 15.060222 94.469937 11.798419 C 91.526876 12.578082 88.591366 13.49326 85.66348 14.543126 C 82.736112 15.577218 80.032109 16.841882 77.549749 18.337803 C 75.08413 19.832659 73.094922 21.607213 71.583989 23.659125 C 70.088004 25.711484 69.340438 28.114268 69.340537 30.86658 C 69.531402 31.836977 69.046131 32.322439 67.884795 32.322137 C 67.025658 32.321886 65.959314 31.980055 64.686659 31.29589 C 63.429778 30.612241 62.324066 29.60186 61.369454 28.265574 C 60.430686 26.928978 59.961162 25.313679 59.961639 23.420574 C 59.961317 18.345518 63.30264 14.224904 69.984782 11.058663 C 76.666924 7.892422 86.324297 6.246186 98.956145 6.119058 C 100.260833 4.813749 101.462229 3.771836 102.560404 2.992491 C 103.673597 2.212766 104.723446 1.823067 105.709952 1.823394 C 106.744817 1.822864 107.667538 2.101622 108.478255 2.658014 C 109.305573 3.214995 109.942626 3.835617 110.387762 4.519739 C 110.849568 5.203623 111.079496 5.736961 111.080096 6.119137 Z M 156.540555 15.712583 C 157.447831 16.619403 158.092116 17.924141 158.473481 19.625971 C 158.871137 21.312544 159.070679 22.998817 159.070384 24.685473 C 159.07018 27.94726 158.2905 31.630206 156.731275 35.735138 C 155.17212 39.839243 153.008716 43.999873 150.240306 48.216129 C 147.472414 52.416612 144.210203 56.274259 140.456012 59.790935 C 136.701064 63.306714 132.644123 66.138964 128.284504 68.285961 C 123.925641 70.433855 119.367254 71.508211 114.610242 71.508274 C 108.676049 71.508345 104.04617 69.750186 100.720605 66.233797 C 97.395797 62.718305 95.733509 58.064656 95.732915 52.272779 C 95.733376 48.025312 96.576361 43.690093 98.262696 39.267193 C 99.965392 34.82821 102.248215 30.556252 105.11199 26.451387 C 101.866195 24.892413 99.281461 22.943773 97.356205 20.604501 C 95.430569 18.25021 94.468099 15.672799 94.468797 12.872269 C 94.468781 10.517907 95.032953 8.497374 96.162966 6.810812 C 97.308515 5.108096 98.613132 3.803614 100.076818 2.897366 C 101.556419 1.989982 102.781515 1.537021 103.751421 1.53676 C 104.992734 1.536412 105.446299 2.05392 105.112256 3.08763 C 105.112338 3.48558 105.09582 3.882943 105.064214 4.281512 C 105.03244 4.662584 105.016576 5.013382 105.016836 5.331426 C 105.016422 11.981543 106.711383 16.905226 110.099994 20.103161 C 113.298005 16.58718 116.782024 13.44533 120.552949 10.676854 C 124.338822 7.908824 128.300322 5.744412 132.43731 4.185272 C 136.573988 2.610286 140.662423 1.822898 144.703441 1.823176 C 148.744529 1.822628 151.998026 2.610518 154.464003 4.186018 C 156.946412 5.744609 158.187305 7.860485 158.18751 10.533717 C 158.187626 12.28368 157.638641 14.009968 156.540555 15.712583 Z M 145.682301 7.789504 C 142.88177 7.788807 139.978251 8.505253 136.971885 9.937189 C 133.980536 11.368745 131.084635 13.309644 128.285009 15.759957 C 125.484247 18.194354 122.875864 20.97822 120.457241 24.112995 C 120.791469 24.176559 121.101797 24.208108 121.388152 24.208467 C 121.690352 24.208517 121.968442 24.208169 122.22318 24.20832 C 125.357598 24.208449 128.515306 23.771001 131.697199 22.89522 C 134.895313 22.00501 137.846937 20.843121 140.551104 19.411134 C 143.256098 17.979219 145.435569 16.452386 147.090486 14.829053 C 148.760867 13.190392 149.595716 11.655067 149.595859 10.223149 C 149.595668 8.600555 148.2914 7.789639 145.682301 7.789504 Z M 117.736383 62.43991 C 120.266402 62.439939 122.899238 61.676189 125.635717 60.148731 C 128.371887 58.605428 131.045142 56.513108 133.654655 53.871699 C 136.263271 51.231046 138.67381 48.200477 140.885447 44.779921 C 143.112928 41.359055 144.974329 37.731204 146.46958 33.897194 C 147.965347 30.04741 148.943375 26.196617 149.405175 22.346608 C 145.952495 24.557887 141.792003 26.372265 136.92384 27.788088 C 132.071212 29.187757 127.139401 29.887996 122.127652 29.887908 C 120.234476 29.888258 118.41262 29.784818 116.662911 29.577658 C 114.435456 33.173355 112.637493 36.896546 111.269094 40.746406 C 109.901212 44.580491 109.216683 48.19249 109.216474 51.580819 C 109.21702 54.970046 109.93291 57.627093 111.36497 59.552029 C 112.812875 61.476657 114.936679 62.439284 117.736383 62.43991 Z M 117.736383 62.43991 " stroke="#000000" stroke-width="17.595919" stroke-opacity="1" stroke-miterlimit="4"/></g><g fill="#ff1513" fill-opacity="1"><g transform="translate(178.725796, 553.237534)"><g><path d="M 262.28125 -314.890625 C 262.46875 -312.753906 260.953125 -310.625 257.734375 -308.5 C 254.523438 -306.375 250.082031 -304.300781 244.40625 -302.28125 C 237.925781 -295.25 231.222656 -284.503906 224.296875 -270.046875 C 217.367188 -255.597656 210.171875 -238.890625 202.703125 -219.921875 C 195.242188 -200.960938 187.472656 -181.125 179.390625 -160.40625 C 171.316406 -139.695312 162.96875 -119.425781 154.34375 -99.59375 C 145.71875 -79.769531 136.632812 -61.671875 127.09375 -45.296875 C 117.5625 -28.921875 107.609375 -15.671875 97.234375 -5.546875 C 86.859375 4.578125 76.015625 10.125 64.703125 11.09375 C 53.691406 12.039062 44.257812 9.84375 36.40625 4.5 C 28.5625 -0.832031 22.453125 -7.46875 18.078125 -15.40625 C 13.710938 -23.34375 11.253906 -30.523438 10.703125 -36.953125 C 10.335938 -41.222656 10.878906 -44.804688 12.328125 -47.703125 C 13.773438 -50.609375 16.03125 -52.191406 19.09375 -52.453125 C 21.53125 -52.660156 23.332031 -52.195312 24.5 -51.0625 C 25.675781 -49.9375 27.15625 -48.832031 28.9375 -47.75 C 30.726562 -46.664062 33.457031 -46.285156 37.125 -46.609375 C 45.6875 -47.335938 54.804688 -53.273438 64.484375 -64.421875 C 74.160156 -75.566406 84.097656 -89.890625 94.296875 -107.390625 C 104.503906 -124.898438 114.800781 -144.03125 125.1875 -164.78125 C 135.570312 -185.53125 145.972656 -206.132812 156.390625 -226.59375 C 166.816406 -247.050781 176.878906 -265.390625 186.578125 -281.609375 C 173.128906 -276.773438 159.734375 -271.320312 146.390625 -265.25 C 133.054688 -259.175781 120.878906 -252.125 109.859375 -244.09375 C 98.847656 -236.070312 90.238281 -226.945312 84.03125 -216.71875 C 77.820312 -206.488281 75.269531 -194.945312 76.375 -182.09375 C 77.664062 -177.582031 75.5625 -175.09375 70.0625 -174.625 C 66.09375 -174.28125 60.988281 -175.460938 54.75 -178.171875 C 48.519531 -180.878906 42.914062 -185.175781 37.9375 -191.0625 C 32.96875 -196.945312 30.101562 -204.320312 29.34375 -213.1875 C 27.300781 -237.039062 41.316406 -257.722656 71.390625 -275.234375 C 101.460938 -292.742188 146.128906 -304.34375 205.390625 -310.03125 C 210.992188 -316.664062 216.234375 -322.035156 221.109375 -326.140625 C 225.992188 -330.253906 230.734375 -332.507812 235.328125 -332.90625 C 240.222656 -333.320312 244.6875 -332.394531 248.71875 -330.125 C 252.757812 -327.851562 255.988281 -325.203125 258.40625 -322.171875 C 260.832031 -319.148438 262.125 -316.722656 262.28125 -314.890625 Z M 262.28125 -314.890625 "/></g></g></g><g fill="#ff1513" fill-opacity="1"><g transform="translate(369.524947, 536.91163)"><g><path d="M 288.578125 -271.875 C 293.234375 -267.957031 296.816406 -262.101562 299.328125 -254.3125 C 301.847656 -246.519531 303.445312 -238.644531 304.125 -230.6875 C 305.4375 -215.40625 303.242188 -197.816406 297.546875 -177.921875 C 291.859375 -158.023438 283.359375 -137.660156 272.046875 -116.828125 C 260.742188 -96.003906 247.007812 -76.582031 230.84375 -58.5625 C 214.675781 -40.550781 196.78125 -25.617188 177.15625 -13.765625 C 157.53125 -1.921875 136.554688 4.953125 114.234375 6.859375 C 86.398438 9.242188 63.976562 2.847656 46.96875 -12.328125 C 29.96875 -27.503906 20.304688 -48.703125 17.984375 -75.921875 C 16.273438 -95.796875 18.507812 -116.46875 24.6875 -137.9375 C 30.863281 -159.414062 39.859375 -180.359375 51.671875 -200.765625 C 35.742188 -206.804688 22.796875 -214.941406 12.828125 -225.171875 C 2.867188 -235.398438 -2.671875 -247.085938 -3.796875 -260.234375 C -4.734375 -271.253906 -2.867188 -280.96875 1.796875 -289.375 C 6.472656 -297.78125 12.066406 -304.414062 18.578125 -309.28125 C 25.085938 -314.144531 30.632812 -316.773438 35.21875 -317.171875 C 41.03125 -317.671875 43.382812 -315.410156 42.28125 -310.390625 C 42.4375 -308.546875 42.515625 -306.703125 42.515625 -304.859375 C 42.523438 -303.023438 42.59375 -301.34375 42.71875 -299.8125 C 45.382812 -268.613281 55.3125 -246.203125 72.5 -232.578125 C 86.070312 -250.378906 101.164062 -266.535156 117.78125 -281.046875 C 134.40625 -295.554688 152.113281 -307.3125 170.90625 -316.3125 C 189.695312 -325.3125 208.566406 -330.617188 227.515625 -332.234375 C 246.484375 -333.859375 262.085938 -331.5 274.328125 -325.15625 C 286.578125 -318.8125 293.238281 -309.375 294.3125 -296.84375 C 295.019531 -288.59375 293.109375 -280.269531 288.578125 -271.875 Z M 234.5 -304.671875 C 221.351562 -303.546875 208.035156 -299.015625 194.546875 -291.078125 C 181.054688 -283.148438 168.226562 -272.890625 156.0625 -260.296875 C 143.894531 -247.703125 132.78125 -233.585938 122.71875 -217.953125 C 124.28125 -217.773438 125.75 -217.742188 127.125 -217.859375 C 128.507812 -217.984375 129.804688 -218.097656 131.015625 -218.203125 C 145.691406 -219.453125 160.347656 -222.78125 174.984375 -228.1875 C 189.617188 -233.59375 202.992188 -240.203125 215.109375 -248.015625 C 227.222656 -255.828125 236.847656 -263.890625 243.984375 -272.203125 C 251.117188 -280.515625 254.398438 -288.035156 253.828125 -294.765625 C 253.171875 -302.410156 246.726562 -305.710938 234.5 -304.671875 Z M 125.265625 -37.046875 C 137.191406 -38.066406 149.269531 -42.71875 161.5 -51 C 173.726562 -59.289062 185.425781 -70.148438 196.59375 -83.578125 C 207.757812 -97.003906 217.851562 -112.191406 226.875 -129.140625 C 235.90625 -146.085938 243.160156 -163.878906 248.640625 -182.515625 C 254.128906 -201.148438 257.175781 -219.582031 257.78125 -237.8125 C 242.457031 -226.03125 223.6875 -215.878906 201.46875 -207.359375 C 179.25 -198.835938 156.367188 -193.566406 132.828125 -191.546875 C 123.960938 -190.785156 115.363281 -190.515625 107.03125 -190.734375 C 98.070312 -173.023438 91.148438 -154.875 86.265625 -136.28125 C 81.390625 -117.6875 79.632812 -100.441406 81 -84.546875 C 82.363281 -68.648438 86.796875 -56.476562 94.296875 -48.03125 C 101.796875 -39.582031 112.117188 -35.921875 125.265625 -37.046875 Z M 125.265625 -37.046875 "/></g></g></g><g clip-path="url(#561e7f4961)"><path stroke-linecap="butt" transform="matrix(4.829266, -0.427656, 0.427656, 4.829266, -383.209501, 684.937718)" fill="none" stroke-linejoin="miter" d="M 102.275857 3.633527 C 106.38252 3.633202 109.475321 4.422335 111.555063 6.000999 C 113.641935 7.572206 114.685644 9.880128 114.685528 12.923088 C 114.684957 14.427536 114.411238 16.166634 113.862838 18.139437 C 112.95952 21.315956 111.738887 23.8375 110.201011 25.703267 C 108.669392 27.562309 106.65019 28.917117 104.14194 29.765943 C 101.640913 30.615408 98.430481 31.026737 94.511445 30.999999 L 83.336399 30.960005 C 82.76129 30.960035 82.315806 30.866391 82.001553 30.679215 C 81.687941 30.484816 81.530125 30.220899 81.530585 29.886876 C 81.530282 29.725884 81.570208 29.549042 81.650506 29.354744 C 81.730679 29.10705 81.848293 28.929807 82.001741 28.822874 C 82.148698 28.716175 82.373167 28.565381 82.674203 28.372027 C 83.115168 28.123928 83.466203 27.850069 83.72745 27.548847 C 83.987824 27.248356 84.212184 26.769961 84.399657 26.114391 L 89.415609 8.438266 C 89.52216 8.084519 89.575854 7.743077 89.575745 7.415475 C 89.575699 7.114571 89.528639 6.860463 89.435367 6.653221 C 89.342095 6.445979 89.211395 6.204686 89.043928 5.931017 C 88.797123 5.575907 88.672953 5.288277 88.673023 5.068271 C 88.672907 4.987374 88.699984 4.836895 88.75345 4.616764 C 88.866564 4.26198 89.107942 4.011575 89.47532 3.86373 C 89.843195 3.710267 90.412144 3.633658 91.180562 3.63376 Z M 103.339304 17.236644 C 104.055095 14.661496 104.41247 12.635377 104.413104 11.157627 C 104.413069 9.705702 104.111727 8.705946 103.509951 8.157627 C 102.908176 7.609308 102.045091 7.335513 100.921571 7.335511 L 100.01893 7.334846 L 94.471215 27.298281 L 95.454824 27.298027 C 96.711765 27.29852 97.772153 27.034093 98.634312 26.505407 C 99.504263 25.970939 100.306703 24.983997 101.042293 23.546256 C 101.784375 22.108281 102.55058 20.005125 103.339304 17.236644 Z M 138.182705 26.154969 C 138.06886 26.508879 138.012353 26.863822 138.011721 27.218051 C 138.011767 27.518955 138.052336 27.773298 138.132695 27.980205 C 138.219475 28.187681 138.309809 28.355028 138.402894 28.482175 C 138.503841 28.602738 138.567361 28.68925 138.594184 28.742584 C 138.868373 29.016806 139.005059 29.290984 139.005042 29.56519 C 139.005167 29.618586 138.975215 29.755869 138.915186 29.977036 C 138.807824 30.358213 138.56736 30.625686 138.192993 30.779383 C 137.824884 30.926354 137.25943 31.000037 136.497504 30.999701 L 126.756241 31.000127 C 126.181131 31.000157 125.73645 30.906584 125.422198 30.719408 C 125.107782 30.524938 124.950485 30.264303 124.950376 29.936701 C 124.950642 29.769288 124.990852 29.589235 125.07115 29.394937 C 125.151386 29.173941 125.265149 29.003637 125.412512 28.883223 C 125.566366 28.762576 125.77969 28.618884 126.05409 28.45229 C 126.495858 28.204262 126.853385 27.930169 127.127545 27.629282 C 127.401704 27.328394 127.632891 26.836852 127.819499 26.154513 L 128.893391 22.61374 L 122.48315 22.613098 L 121.369342 24.960489 C 120.907834 25.970342 120.677425 26.763662 120.677455 27.338771 C 120.676995 27.672794 120.730659 27.943665 120.837646 28.151312 C 120.951764 28.351502 121.115073 28.56252 121.329321 28.782901 C 121.523291 29.003914 121.653937 29.191008 121.720386 29.344916 C 121.787474 29.4916 121.79421 29.689561 121.740806 29.93639 C 121.633506 30.344265 121.406352 30.625858 121.058684 30.779493 C 120.717273 30.926402 120.179319 31.000094 119.443289 30.999624 L 113.324179 30.999689 C 112.688379 31.000007 112.206951 30.882958 111.879093 30.648471 C 111.551966 30.414858 111.387484 30.107481 111.388124 29.725751 C 111.387532 29.284865 111.545377 28.936469 111.859038 28.682758 C 112.173338 28.421824 112.645521 28.140899 113.27398 27.839841 C 114.096068 27.425701 114.754776 27.02055 115.249963 26.625994 C 115.744916 26.224946 116.169408 25.669635 116.524169 24.960934 L 123.836859 9.792669 C 124.960938 7.438908 126.281305 5.736684 127.799495 4.686941 C 129.324816 3.629741 131.330631 3.102031 133.818759 3.101546 C 136.614212 3.101583 138.777744 3.670109 140.309356 4.807122 C 141.84746 5.943902 142.616579 7.525407 142.616644 9.552442 C 142.616658 10.401757 142.47923 11.277727 142.205163 12.180422 Z M 130.127107 18.510395 L 132.303643 11.277708 C 132.41113 10.949928 132.464824 10.608486 132.464653 10.254186 C 132.464748 9.732473 132.32064 9.34116 132.033133 9.080319 C 131.745625 8.819477 131.340543 8.689776 130.819632 8.689753 C 130.163697 8.689096 129.602099 8.883642 129.13425 9.270913 C 128.672587 9.652261 128.20776 10.334228 127.739698 11.317618 L 124.368718 18.510857 Z M 167.178031 3.633113 C 171.28382 3.633519 174.377424 4.422723 176.457237 6.000585 C 178.544038 7.572594 179.587016 9.879642 179.5869 12.922602 C 179.58706 14.427924 179.312609 16.166149 178.764209 18.138952 C 177.861623 21.316344 176.641061 23.837086 175.103114 25.703656 C 173.571495 27.562697 171.551561 28.916631 169.044043 29.766331 C 166.542214 30.615725 163.332584 31.027125 159.413548 31.000387 L 148.237771 30.95952 C 147.662661 30.95955 147.21798 30.865976 146.903728 30.6788 C 146.589241 30.485133 146.432299 30.220485 146.431956 29.886391 C 146.432385 29.726273 146.472382 29.548628 146.552609 29.355132 C 146.632782 29.107438 146.749593 28.930124 146.903844 28.823262 C 147.050872 28.715761 147.274467 28.565698 147.575574 28.371541 C 148.017271 28.124316 148.368377 27.849655 148.628751 27.549164 C 148.889998 27.247942 149.114287 26.770349 149.300958 26.114708 L 154.316909 8.438583 C 154.424334 8.084104 154.477957 7.743465 154.477919 7.415061 C 154.477873 7.114157 154.430813 6.860048 154.337541 6.652807 C 154.243467 6.445494 154.113498 6.205074 153.946102 5.930603 C 153.698424 5.576224 153.575056 5.288666 153.575197 5.067856 C 153.57501 4.987762 153.601284 4.837212 153.654821 4.616278 C 153.768667 4.262368 154.009314 4.011089 154.377423 3.864118 C 154.745298 3.710655 155.313515 3.633172 156.082736 3.633345 Z M 168.241478 17.23623 C 168.956395 14.661813 169.314644 12.634963 169.314475 11.157142 C 169.314369 9.706019 169.01383 8.706334 168.412054 8.158015 C 167.809477 7.609625 166.947265 7.335099 165.823745 7.335096 L 164.921033 7.335235 L 159.373318 27.298669 L 160.356125 27.298344 C 161.613939 27.298105 162.673454 27.03441 163.536415 26.505795 C 164.405635 25.970454 165.208004 24.984314 165.943594 23.546573 C 166.686478 22.108669 167.45188 20.005442 168.241478 17.23623 Z M 204.809918 3.633062 C 205.819352 3.633477 206.605427 3.854347 207.167343 4.2956 C 207.729024 4.730362 208.009814 5.331952 208.009641 6.101173 C 208.009874 6.482171 207.956242 6.850311 207.84962 7.204861 L 206.775875 11.027134 C 206.588823 11.76929 206.307868 12.283927 205.933742 12.571918 C 205.565305 12.859603 205.040572 13.00322 204.358741 13.002697 C 203.696242 13.003077 203.181562 12.859626 202.813969 12.57147 C 202.445502 12.284047 202.164506 11.812667 201.97098 11.15733 L 201.319047 8.809686 C 201.178419 8.315146 201.010897 7.987279 200.817215 7.826957 C 200.629861 7.659107 200.261943 7.575567 199.713532 7.575535 L 195.399775 7.576125 L 193.343933 14.889063 L 195.149357 14.888786 C 195.343467 14.888989 195.603931 14.751898 195.931549 14.477584 L 197.326052 13.253496 C 197.740567 12.893048 198.098562 12.63194 198.399894 12.471775 C 198.700261 12.304245 199.068445 12.220372 199.502769 12.220817 C 199.997855 12.220172 200.402866 12.350675 200.717072 12.611454 C 201.031206 12.873036 201.188457 13.207274 201.188752 13.614971 C 201.188362 13.728987 201.161469 13.895659 201.107932 14.116593 L 199.423141 19.824427 C 199.262241 20.426537 198.981781 20.871655 198.580225 21.158834 C 198.185892 21.446653 197.754166 21.590418 197.28585 21.590198 C 196.516629 21.590025 195.941977 21.192131 195.560286 20.396375 L 194.858255 18.961553 C 194.670909 18.546999 194.370543 18.340021 193.955623 18.339677 L 192.360504 18.339974 L 189.932779 27.057341 L 193.544357 27.057661 C 194.06607 27.057756 194.524222 26.95354 194.918671 26.746618 C 195.319611 26.539462 195.754404 26.178383 196.223049 25.663382 L 198.680101 22.944767 C 199.122173 22.483224 199.540032 22.148956 199.934551 21.941231 C 200.335492 21.734076 200.823552 21.630081 201.399464 21.630123 C 202.001272 21.63003 202.49223 21.767336 202.874015 22.04138 C 203.261418 22.315921 203.45554 22.727031 203.455508 23.275442 C 203.455367 23.496251 203.412062 23.756917 203.325522 24.058242 L 202.131143 28.201469 C 201.830121 29.244139 201.392615 29.973822 200.817232 30.38797 C 200.242418 30.795697 199.409775 31.000213 198.319444 30.999914 L 178.717284 30.999879 C 178.142174 30.999909 177.697493 30.906336 177.383241 30.71916 C 177.068754 30.525492 176.911528 30.264054 176.911419 29.936452 C 176.911614 29.769842 176.951895 29.588987 177.032193 29.394689 C 177.138869 29.094338 177.316246 28.863341 177.56345 28.702427 C 177.811152 28.535895 177.96134 28.43838 178.015477 28.411628 C 178.456309 28.137633 178.814404 27.857121 179.088229 27.569145 C 179.362856 27.281241 179.593069 26.809834 179.780542 26.154265 L 184.836376 8.438801 C 184.943801 8.084323 184.997089 7.756596 184.997043 7.455692 C 184.996934 7.12809 184.950046 6.853775 184.856377 6.632747 C 184.76344 6.412593 184.619188 6.178189 184.425156 5.930478 C 184.17828 5.57617 184.05411 5.288541 184.054251 5.067732 C 184.054064 4.987637 184.08114 4.837158 184.134678 4.616224 C 184.248523 4.262314 184.495591 4.011604 184.876683 3.864165 C 185.258344 3.710305 185.82007 3.633056 186.56179 3.63322 Z M 239.276166 7.57579 C 239.275852 8.56582 239.062067 9.418041 238.633865 10.133989 C 238.212724 10.843282 237.670894 11.380922 237.008963 11.749389 C 236.353595 12.116818 235.698309 12.300642 235.043105 12.300859 C 234.380606 12.301238 233.782053 12.164111 233.247444 11.889476 C 232.718453 11.615339 232.276998 11.247844 231.923151 10.78619 L 222.011708 27.469056 C 221.275915 28.726401 220.590139 29.629037 219.95518 30.177034 C 219.326641 30.7256 218.617222 31.000076 217.828597 30.999802 C 216.979282 30.999816 216.300444 30.71888 215.792081 30.156993 C 215.283647 29.59591 214.918938 28.699739 214.698755 27.468553 L 211.247302 8.478814 C 211.167599 7.990478 211.016481 7.596118 210.796429 7.295144 C 210.575573 6.994099 210.287829 6.662865 209.933123 6.302244 C 209.658996 6.05472 209.465373 5.857196 209.351451 5.7096 C 209.244518 5.556151 209.191203 5.37267 209.190775 5.158281 C 209.057536 4.141865 209.662314 3.633256 211.006644 3.6334 L 221.279322 3.633119 C 221.907757 3.633767 222.386442 3.763515 222.71356 4.024628 C 223.041481 4.285813 223.191905 4.633197 223.165565 5.067655 C 223.165486 5.315162 223.114762 5.522594 223.014998 5.690093 C 222.920689 5.850796 222.76754 6.05482 222.553144 6.301952 C 222.305621 6.576079 222.111828 6.837169 221.971035 7.084349 C 221.837465 7.332168 221.7704 7.632791 221.770571 7.987091 C 221.771108 8.154575 221.784048 8.291611 221.810995 8.398342 L 223.375455 17.978826 L 228.832902 8.278433 C 229.796152 6.52598 230.742077 5.288862 231.672353 4.566416 C 232.601593 3.837408 233.751763 3.472544 235.122791 3.472625 C 236.380534 3.473189 237.386878 3.837322 238.142482 4.566699 C 238.897924 5.288782 239.275795 6.29208 239.276166 7.57579 Z M 239.276166 7.57579 " stroke="#000000" stroke-width="7.39719" stroke-opacity="1" stroke-miterlimit="4"/></g><g fill="#ff1513" fill-opacity="1"><g transform="translate(28.915029, 799.323244)"><g><path d="M 83.34375 -140.59375 C 103.195312 -142.34375 118.484375 -139.859375 129.203125 -133.140625 C 139.929688 -126.421875 145.945312 -115.71875 147.25 -101.03125 C 147.894531 -93.757812 147.316406 -85.242188 145.515625 -75.484375 C 142.503906 -59.753906 137.691406 -47.0625 131.078125 -37.40625 C 124.460938 -27.757812 115.285156 -20.347656 103.546875 -15.171875 C 91.804688 -9.992188 76.476562 -6.632812 57.5625 -5.09375 L 3.5625 -0.515625 C 0.78125 -0.273438 -1.410156 -0.546875 -3.015625 -1.328125 C -4.628906 -2.117188 -5.503906 -3.3125 -5.640625 -4.90625 C -5.710938 -5.695312 -5.585938 -6.570312 -5.265625 -7.53125 C -4.972656 -8.769531 -4.488281 -9.679688 -3.8125 -10.265625 C -3.132812 -10.859375 -2.101562 -11.679688 -0.71875 -12.734375 C 1.289062 -14.109375 2.859375 -15.578125 3.984375 -17.140625 C 5.109375 -18.710938 5.992188 -21.125 6.640625 -24.375 L 23.3125 -111.875 C 23.6875 -113.632812 23.800781 -115.304688 23.65625 -116.890625 C 23.53125 -118.347656 23.1875 -119.550781 22.625 -120.5 C 22.070312 -121.445312 21.34375 -122.554688 20.4375 -123.828125 C 19.09375 -125.421875 18.375 -126.75 18.28125 -127.8125 C 18.25 -128.207031 18.320312 -128.953125 18.5 -130.046875 C 18.863281 -131.796875 19.90625 -133.117188 21.625 -134.015625 C 23.351562 -134.910156 26.070312 -135.519531 29.78125 -135.84375 Z M 94.328125 -75.34375 C 96.671875 -88.09375 97.523438 -98.035156 96.890625 -105.171875 C 96.265625 -112.179688 94.378906 -116.878906 91.234375 -119.265625 C 88.085938 -121.660156 83.804688 -122.617188 78.390625 -122.140625 L 74.015625 -121.75 L 55.78125 -22.953125 L 60.53125 -23.375 C 66.613281 -23.914062 71.625 -25.660156 75.5625 -28.609375 C 79.507812 -31.554688 82.957031 -36.65625 85.90625 -43.90625 C 88.863281 -51.164062 91.671875 -61.644531 94.328125 -75.34375 Z M 94.328125 -75.34375 "/></g></g></g><g fill="#ff1513" fill-opacity="1"><g transform="translate(176.108238, 786.288536)"><g><path d="M 119.171875 -34.15625 C 118.796875 -32.394531 118.6875 -30.648438 118.84375 -28.921875 C 118.96875 -27.472656 119.269531 -26.269531 119.75 -25.3125 C 120.238281 -24.351562 120.738281 -23.59375 121.25 -23.03125 C 121.769531 -22.476562 122.109375 -22.070312 122.265625 -21.8125 C 123.703125 -20.625 124.484375 -19.363281 124.609375 -18.03125 C 124.628906 -17.769531 124.554688 -17.097656 124.390625 -16.015625 C 124.023438 -14.109375 122.976562 -12.710938 121.25 -11.828125 C 119.53125 -10.941406 116.820312 -10.335938 113.125 -10.015625 L 66.078125 -5.84375 C 63.296875 -5.601562 61.101562 -5.878906 59.5 -6.671875 C 57.90625 -7.460938 57.039062 -8.65625 56.90625 -10.25 C 56.832031 -11.03125 56.945312 -11.898438 57.25 -12.859375 C 57.550781 -13.960938 58.039062 -14.84375 58.71875 -15.5 C 59.40625 -16.15625 60.367188 -16.941406 61.609375 -17.859375 C 63.617188 -19.222656 65.21875 -20.691406 66.40625 -22.265625 C 67.601562 -23.847656 68.519531 -26.335938 69.15625 -29.734375 L 72.828125 -47.25 L 41.875 -44.515625 L 37.515625 -32.71875 C 35.691406 -27.632812 34.90625 -23.703125 35.15625 -20.921875 C 35.289062 -19.328125 35.664062 -18.054688 36.28125 -17.109375 C 36.894531 -16.171875 37.78125 -15.21875 38.9375 -14.25 C 39.957031 -13.28125 40.664062 -12.441406 41.0625 -11.734375 C 41.457031 -11.035156 41.570312 -10.082031 41.40625 -8.875 C 41.0625 -6.832031 40.09375 -5.375 38.5 -4.5 C 36.914062 -3.632812 34.332031 -3.039062 30.75 -2.71875 L 1.203125 -0.109375 C -1.847656 0.160156 -4.21875 -0.191406 -5.90625 -1.171875 C -7.59375 -2.160156 -8.519531 -3.578125 -8.6875 -5.421875 C -8.875 -7.546875 -8.257812 -9.304688 -6.84375 -10.703125 C -5.4375 -12.097656 -3.273438 -13.65625 -0.359375 -15.375 C 3.429688 -17.695312 6.429688 -19.925781 8.640625 -22.0625 C 10.847656 -24.195312 12.664062 -27.054688 14.09375 -30.640625 L 42.9375 -107 C 47.34375 -118.863281 52.988281 -127.664062 59.875 -133.40625 C 66.769531 -139.144531 76.238281 -142.546875 88.28125 -143.609375 C 101.769531 -144.804688 112.460938 -142.984375 120.359375 -138.140625 C 128.253906 -133.304688 132.632812 -126 133.5 -116.21875 C 133.863281 -112.113281 133.582031 -107.820312 132.65625 -103.34375 Z M 77 -67.625 L 84.4375 -103.46875 C 84.820312 -105.101562 84.9375 -106.785156 84.78125 -108.515625 C 84.5625 -111.023438 83.703125 -112.84375 82.203125 -113.96875 C 80.703125 -115.101562 78.691406 -115.5625 76.171875 -115.34375 C 73.003906 -115.0625 70.378906 -113.894531 68.296875 -111.84375 C 66.210938 -109.789062 64.253906 -106.28125 62.421875 -101.3125 L 49.21875 -65.15625 Z M 77 -67.625 "/></g></g></g><g fill="#ff1513" fill-opacity="1"><g transform="translate(308.62154, 774.553808)"><g/></g></g><g fill="#ff1513" fill-opacity="1"><g transform="translate(342.343134, 771.567589)"><g><path d="M 83.34375 -140.59375 C 103.195312 -142.34375 118.484375 -139.859375 129.203125 -133.140625 C 139.929688 -126.421875 145.945312 -115.71875 147.25 -101.03125 C 147.894531 -93.757812 147.316406 -85.242188 145.515625 -75.484375 C 142.503906 -59.753906 137.691406 -47.0625 131.078125 -37.40625 C 124.460938 -27.757812 115.285156 -20.347656 103.546875 -15.171875 C 91.804688 -9.992188 76.476562 -6.632812 57.5625 -5.09375 L 3.5625 -0.515625 C 0.78125 -0.273438 -1.410156 -0.546875 -3.015625 -1.328125 C -4.628906 -2.117188 -5.503906 -3.3125 -5.640625 -4.90625 C -5.710938 -5.695312 -5.585938 -6.570312 -5.265625 -7.53125 C -4.972656 -8.769531 -4.488281 -9.679688 -3.8125 -10.265625 C -3.132812 -10.859375 -2.101562 -11.679688 -0.71875 -12.734375 C 1.289062 -14.109375 2.859375 -15.578125 3.984375 -17.140625 C 5.109375 -18.710938 5.992188 -21.125 6.640625 -24.375 L 23.3125 -111.875 C 23.6875 -113.632812 23.800781 -115.304688 23.65625 -116.890625 C 23.53125 -118.347656 23.1875 -119.550781 22.625 -120.5 C 22.070312 -121.445312 21.34375 -122.554688 20.4375 -123.828125 C 19.09375 -125.421875 18.375 -126.75 18.28125 -127.8125 C 18.25 -128.207031 18.320312 -128.953125 18.5 -130.046875 C 18.863281 -131.796875 19.90625 -133.117188 21.625 -134.015625 C 23.351562 -134.910156 26.070312 -135.519531 29.78125 -135.84375 Z M 94.328125 -75.34375 C 96.671875 -88.09375 97.523438 -98.035156 96.890625 -105.171875 C 96.265625 -112.179688 94.378906 -116.878906 91.234375 -119.265625 C 88.085938 -121.660156 83.804688 -122.617188 78.390625 -122.140625 L 74.015625 -121.75 L 55.78125 -22.953125 L 60.53125 -23.375 C 66.613281 -23.914062 71.625 -25.660156 75.5625 -28.609375 C 79.507812 -31.554688 82.957031 -36.65625 85.90625 -43.90625 C 88.863281 -51.164062 91.671875 -61.644531 94.328125 -75.34375 Z M 94.328125 -75.34375 "/></g></g></g><g fill="#ff1513" fill-opacity="1"><g transform="translate(489.536342, 758.532881)"><g><path d="M 117.875 -143.640625 C 122.78125 -144.078125 126.679688 -143.351562 129.578125 -141.46875 C 132.472656 -139.59375 134.085938 -136.804688 134.421875 -133.109375 C 134.578125 -131.253906 134.46875 -129.4375 134.09375 -127.65625 L 130.5625 -108.765625 C 129.957031 -105.097656 128.820312 -102.492188 127.15625 -100.953125 C 125.488281 -99.410156 123.003906 -98.492188 119.703125 -98.203125 C 116.523438 -97.921875 113.984375 -98.394531 112.078125 -99.625 C 110.171875 -100.851562 108.613281 -103.015625 107.40625 -106.109375 L 103.234375 -117.140625 C 102.347656 -119.460938 101.410156 -120.976562 100.421875 -121.6875 C 99.429688 -122.40625 97.613281 -122.648438 94.96875 -122.421875 L 74.125 -120.578125 L 67.328125 -84.359375 L 76.0625 -85.125 C 76.988281 -85.207031 78.1875 -85.984375 79.65625 -87.453125 L 85.875 -94 C 87.71875 -95.90625 89.328125 -97.316406 90.703125 -98.234375 C 92.085938 -99.148438 93.835938 -99.703125 95.953125 -99.890625 C 98.335938 -100.109375 100.34375 -99.65625 101.96875 -98.53125 C 103.601562 -97.40625 104.507812 -95.847656 104.6875 -93.859375 C 104.738281 -93.328125 104.675781 -92.523438 104.5 -91.453125 L 98.8125 -63.140625 C 98.269531 -60.171875 97.097656 -57.90625 95.296875 -56.34375 C 93.503906 -54.789062 91.488281 -53.914062 89.25 -53.71875 C 85.539062 -53.382812 82.59375 -55.050781 80.40625 -58.71875 L 76.421875 -65.359375 C 75.316406 -67.265625 73.773438 -68.128906 71.796875 -67.953125 L 64.0625 -67.28125 L 56.0625 -24.15625 L 73.515625 -25.703125 C 76.035156 -25.929688 78.207031 -26.625 80.03125 -27.78125 C 81.863281 -28.9375 83.796875 -30.878906 85.828125 -33.609375 L 96.578125 -47.75 C 98.484375 -50.1875 100.351562 -51.984375 102.1875 -53.140625 C 104.03125 -54.304688 106.34375 -55.015625 109.125 -55.265625 C 112.03125 -55.523438 114.460938 -55.070312 116.421875 -53.90625 C 118.390625 -52.75 119.492188 -50.847656 119.734375 -48.203125 C 119.828125 -47.140625 119.738281 -45.867188 119.46875 -44.390625 L 115.5 -23.828125 C 114.476562 -18.679688 112.664062 -14.988281 110.0625 -12.75 C 107.457031 -10.519531 103.507812 -9.171875 98.21875 -8.703125 L 3.578125 -0.3125 C 0.796875 -0.0703125 -1.394531 -0.347656 -3 -1.140625 C -4.613281 -1.929688 -5.488281 -3.125 -5.625 -4.71875 C -5.695312 -5.5 -5.570312 -6.367188 -5.25 -7.328125 C -4.84375 -8.847656 -4.082031 -10.054688 -2.96875 -10.953125 C -1.851562 -11.847656 -1.164062 -12.367188 -0.90625 -12.515625 C 1.09375 -14.023438 2.691406 -15.535156 3.890625 -17.046875 C 5.085938 -18.554688 6.007812 -20.9375 6.65625 -24.1875 L 23.5 -111.890625 C 23.863281 -113.648438 23.984375 -115.253906 23.859375 -116.703125 C 23.710938 -118.296875 23.363281 -119.597656 22.8125 -120.609375 C 22.257812 -121.628906 21.46875 -122.703125 20.4375 -123.828125 C 19.09375 -125.421875 18.375 -126.75 18.28125 -127.8125 C 18.25 -128.207031 18.320312 -128.953125 18.5 -130.046875 C 18.863281 -131.796875 19.941406 -133.117188 21.734375 -134.015625 C 23.523438 -134.921875 26.207031 -135.53125 29.78125 -135.84375 Z M 117.875 -143.640625 "/></g></g></g><g fill="#ff1513" fill-opacity="1"><g transform="translate(616.693505, 747.272467)"><g><path d="M 158.859375 -128.078125 C 159.273438 -123.304688 158.609375 -119.109375 156.859375 -115.484375 C 155.117188 -111.867188 152.738281 -109.023438 149.71875 -106.953125 C 146.707031 -104.878906 143.613281 -103.703125 140.4375 -103.421875 C 137.257812 -103.140625 134.320312 -103.546875 131.625 -104.640625 C 128.9375 -105.734375 126.632812 -107.332031 124.71875 -109.4375 L 84.015625 -24.65625 C 80.984375 -18.238281 78.0625 -13.570312 75.25 -10.65625 C 72.445312 -7.75 69.128906 -6.125 65.296875 -5.78125 C 61.191406 -5.414062 57.796875 -6.484375 55.109375 -8.984375 C 52.421875 -11.484375 50.28125 -15.664062 48.6875 -21.53125 L 23.921875 -111.71875 C 23.304688 -114.070312 22.40625 -115.925781 21.21875 -117.28125 C 20.039062 -118.644531 18.507812 -120.109375 16.625 -121.671875 C 15.195312 -122.753906 14.1875 -123.632812 13.59375 -124.3125 C 13 -124.988281 12.65625 -125.859375 12.5625 -126.921875 C 11.46875 -131.753906 14.160156 -134.457031 20.640625 -135.03125 L 70.25 -139.421875 C 73.289062 -139.691406 75.660156 -139.265625 77.359375 -138.140625 C 79.054688 -137.023438 79.929688 -135.40625 79.984375 -133.28125 C 80.097656 -132.09375 79.957031 -131.082031 79.5625 -130.25 C 79.164062 -129.414062 78.492188 -128.351562 77.546875 -127.0625 C 76.460938 -125.632812 75.644531 -124.296875 75.09375 -123.046875 C 74.550781 -121.796875 74.351562 -120.3125 74.5 -118.59375 C 74.570312 -117.800781 74.695312 -117.148438 74.875 -116.640625 L 86.515625 -71.0625 L 108.75 -120.21875 C 112.632812 -129.101562 116.671875 -135.5 120.859375 -139.40625 C 125.046875 -143.3125 130.453125 -145.554688 137.078125 -146.140625 C 143.148438 -146.679688 148.160156 -145.359375 152.109375 -142.171875 C 156.054688 -138.984375 158.304688 -134.285156 158.859375 -128.078125 Z M 158.859375 -128.078125 "/></g></g></g></svg>